<mxfile host="65bd71144e">
    <diagram name="Page-1" id="5iMEqHa3q47d36K0GLwW">
        <mxGraphModel dx="870" dy="787" grid="1" gridSize="10" guides="1" tooltips="1" connect="1" arrows="1" fold="1" page="1" pageScale="1" pageWidth="850" pageHeight="1100" math="0" shadow="0">
            <root>
                <mxCell id="0"/>
                <mxCell id="1" parent="0"/>
                <mxCell id="OxFK7hYPwCvfKSO99pZe-37" value="" style="rounded=0;whiteSpace=wrap;html=1;" parent="1" vertex="1">
                    <mxGeometry x="415" y="350" width="120" height="80" as="geometry"/>
                </mxCell>
                <mxCell id="OxFK7hYPwCvfKSO99pZe-38" value="&lt;font style=&quot;font-size: 9px;&quot;&gt;&lt;b style=&quot;color: rgb(189, 193, 198); text-align: left; background-color: rgb(32, 33, 36); font-family: &amp;quot;Google Sans&amp;quot;, arial, sans-serif;&quot;&gt;â€¢ Node id's&lt;br&gt;&lt;/b&gt;&lt;b style=&quot;color: rgb(189, 193, 198); text-align: left; background-color: rgb(32, 33, 36); font-family: &amp;quot;Google Sans&amp;quot;, arial, sans-serif;&quot;&gt;&lt;br&gt;&lt;br&gt;&lt;/b&gt;&lt;/font&gt;&lt;b style=&quot;color: rgb(189, 193, 198); font-family: &amp;quot;Google Sans&amp;quot;, arial, sans-serif; font-size: 14px; text-align: left; background-color: rgb(32, 33, 36);&quot;&gt;&lt;br&gt;&lt;/b&gt;" style="text;html=1;strokeColor=none;fillColor=none;align=center;verticalAlign=middle;whiteSpace=wrap;rounded=0;" parent="1" vertex="1">
                    <mxGeometry x="406" y="366" width="140" height="55" as="geometry"/>
                </mxCell>
                <mxCell id="OxFK7hYPwCvfKSO99pZe-35" value="" style="rounded=0;whiteSpace=wrap;html=1;" parent="1" vertex="1">
                    <mxGeometry x="225" y="350" width="120" height="80" as="geometry"/>
                </mxCell>
                <mxCell id="OxFK7hYPwCvfKSO99pZe-33" value="" style="rounded=0;whiteSpace=wrap;html=1;" parent="1" vertex="1">
                    <mxGeometry x="45" y="350" width="120" height="80" as="geometry"/>
                </mxCell>
                <mxCell id="OxFK7hYPwCvfKSO99pZe-42" style="edgeStyle=orthogonalEdgeStyle;rounded=0;orthogonalLoop=1;jettySize=auto;html=1;exitX=1;exitY=0.5;exitDx=0;exitDy=0;entryX=0;entryY=0.5;entryDx=0;entryDy=0;" parent="1" source="OxFK7hYPwCvfKSO99pZe-16" target="OxFK7hYPwCvfKSO99pZe-43" edge="1">
                    <mxGeometry relative="1" as="geometry">
                        <mxPoint x="440" y="219.8888888888889" as="targetPoint"/>
                    </mxGeometry>
                </mxCell>
                <mxCell id="OxFK7hYPwCvfKSO99pZe-16" value="" style="rounded=1;whiteSpace=wrap;html=1;" parent="1" vertex="1">
                    <mxGeometry x="230" y="190" width="120" height="60" as="geometry"/>
                </mxCell>
                <mxCell id="OxFK7hYPwCvfKSO99pZe-1" value="" style="shape=image;verticalLabelPosition=bottom;labelBackgroundColor=default;verticalAlign=top;aspect=fixed;imageAspect=0;image=data:image/png,iVBORw0KGgoAAAANSUhEUgAAAOEAAADhCAMAAAAJbSJIAAAAllBMVEX///94uesAbfAAbPAAZ/B9vesAYO8AZe8adfDr8P0OcPD09/4AafAAYu90tuthk/PV4Ps+gfJtsOxxs+t7u+vP3Pvc5fxrmfRWjfNprOwwge90n/RcpexSkvM3iu4hfO9Jl+1aj/PE1PqtyvliqexRnO2AwOo+ju4zh+7j7v1al/SDr/Z7qfZLiPIwhe6NtveZvfgdefDg45UJAAAFy0lEQVR4nO3dDXuaOhQHcEjCixjdpna37dru3db2trd+/y93nUAIylsiHDjZ+T/bnkdmld+SAIEk8zwKhUKhUIbL7l5Eg0c8z0YDzpjgbPBwkXweS/gSDe/7Ezka8YOEETLJd44LGZfjlCKccKyKmgkX4WBZaMQxKmoqXHwc7huuCiIXIxBBhYwz+IoKKxyjLQILmWTQFRVMyOVIbRFKKD88i4wIXFHBhP94D2KUtggo9K7zUuRx0ilxfH/5Pwak0LtXxK6R4cV7BipUxO6RT5d+P6zQezIlcnHp9wMLzUsxuvT7oYXGRHxCnSgag1ZYtEX+a7muzXIt0Aq1k8Yq8OuDWFgQk5uNm8Li6qaJiFqorlEPFbWWiFtYVFRWW4rIhR3aInahOmlwVlNR0Qv1k0YlEb+wrS06IGxpiy4Im9uiE0KtLZ6XohvCporqiLCoqMlpRXVFWH/ScEZYe9JwR1jXFvEIj2Mh5GvDW14rTxpohDt5HM4SNX1FZVtEI/RinlbBq4b3POdPprSKikf4b7qrPLq9rsv313zYkkbEI9yF+d7L2hTjsjhfoxN6L6WnwG2RbwE6obrx1Ck8QSicXy+6Dw9EKfS8/yLBOyKRCr3dyycWLVqCWnjI7nNLPi6QC1szD0loExJChoR2ISFkSGgXEkKGhHYhIWRIaBcSQqajcD4zyfz7URj9MPqpfjM3E74nZvOusnvN0TCzujpl/9NE+DMEmPPac3h4ZSDc4wMyJu8NhBFGIf9kIhx1Vy1jI+w+ZWPk2Ap5jCXcUigCJElHq9sIfSRZkZCEkw8JbYSbpZZsm75lU/3O8xTvLH/Y6MKnYjpV9DX9qJuwmE0V36l5Oo9J47yr5FtGDKLj63AawuBWGzPAbzOhvk38Snd889iyMg8Xv9N3Bty+ZfQvvNFXMqkSqo3LpO0aPt+TSQk3d+3Cfbpx3T5AJJqg0F/pBVMplA+4hcFTUYi8EGoDQeTKLwm1LoB6xScs9H2W723CWC6ULEmyreJbUBYm2p/qFZ+wULXEZL0N8hNDEGwfs57a13xbdtWfbNNOQDa8MH21jSYs9IMHmVm00bjKXQxgzYWlb+OZadJCdRpQ9fFPsm2y2IZYqMpLqPLKjz96uSIWavX01CxXbgjP6uQyrqi3qIWbu/xcdyyzymMPbmFh2m8K78kEOdzCcr08P446INTqaVGe5QUckAu1tqeOo+vyxDHsQnXez6+iT+qoA8JyT7E4N7ojVPU0b4+nU1TxC9UxtLKOOiFUx1O9z+SUUKunVas2uCD011k15Q/nReiE0Pky1Nvh3s12aHQsDdP18TEJDc+H2VNpH4/Q9JqmFBTC0+tS0XJdik5Y0bdYNfYtsAm1/uFW7++7IzTv4yMTWtynwSVUJoN7bbiENvdLUQmt7nljEto9t8AktHv2hEho+fwQj7D1GbC9sGkcKaCw6DN1eo5vIFTP+isib8CEep+py1gME2HD4HIBJzQdT2MkrA+c0HhMFDphl3Ftb8bC9nk6gMLuYxO7Cw+XuW1EQKHvP3QcX7o+box4pTD9gTC/bfM7bv4vAEQIKew8Rrhp5O/J3230T6geUAwonFZISMLph4T1wiHnm/UZ67lr7s8/dH8OKbKYCZ2fy+3+fHz311Tw3mOzRSnGXxdjYbYuxl+wtolpEK5PYxgSQoaEdiEhZEhoFxJChoR2ISFkSGgXEkKGhHYhIWRIaBcSQoaEdiEhZEhoFxJChoR2ISFkSGgXEkKGhHYhIWRIaBcSQoaEdiEhZEhol79GeDWfQGYDCtlivNGXWtiAwgmFhCQ8zcvk5i/kU1v7Es4TcTrBg407I0Vk8+X7EnrzL3GcJIdfh99xtmpAMmJu1cIVfQlL+XL8VHm3HXG2l+9DCM/XURwhJCQhCccPCS8QMtmyCgRM2IDCKYWE6IW8Z+H75Hoa8q1f4TxuXU0HNFzmM2h7y+xZRlPKW99ACoVCoTid/wFaCFEIf2VItQAAAABJRU5ErkJggg==;" parent="1" vertex="1">
                    <mxGeometry x="260" y="100" width="60" height="60" as="geometry"/>
                </mxCell>
                <mxCell id="OxFK7hYPwCvfKSO99pZe-2" value="" style="endArrow=classic;html=1;rounded=0;exitX=0.5;exitY=1;exitDx=0;exitDy=0;entryX=0.5;entryY=0;entryDx=0;entryDy=0;" parent="1" source="OxFK7hYPwCvfKSO99pZe-1" target="OxFK7hYPwCvfKSO99pZe-16" edge="1">
                    <mxGeometry width="50" height="50" relative="1" as="geometry">
                        <mxPoint x="150" y="310" as="sourcePoint"/>
                        <mxPoint x="290" y="170" as="targetPoint"/>
                    </mxGeometry>
                </mxCell>
                <mxCell id="OxFK7hYPwCvfKSO99pZe-3" value="&lt;b style=&quot;&quot;&gt;&lt;font color=&quot;#ef0fff&quot;&gt;class &lt;/font&gt;&lt;/b&gt;&lt;font color=&quot;#ff9933&quot;&gt;Pathway&lt;/font&gt;" style="text;html=1;strokeColor=none;fillColor=none;align=center;verticalAlign=middle;whiteSpace=wrap;rounded=0;" parent="1" vertex="1">
                    <mxGeometry x="235" y="205" width="100" height="30" as="geometry"/>
                </mxCell>
                <mxCell id="OxFK7hYPwCvfKSO99pZe-17" value="" style="rounded=1;whiteSpace=wrap;html=1;" parent="1" vertex="1">
                    <mxGeometry x="45" y="300" width="120" height="60" as="geometry"/>
                </mxCell>
                <mxCell id="OxFK7hYPwCvfKSO99pZe-19" value="" style="rounded=1;whiteSpace=wrap;html=1;" parent="1" vertex="1">
                    <mxGeometry x="225" y="300" width="120" height="60" as="geometry"/>
                </mxCell>
                <mxCell id="OxFK7hYPwCvfKSO99pZe-20" value="&lt;b style=&quot;&quot;&gt;&lt;font color=&quot;#ef0fff&quot;&gt;class &lt;/font&gt;&lt;/b&gt;&lt;font color=&quot;#ff9933&quot;&gt;Transitions&lt;/font&gt;" style="text;html=1;strokeColor=none;fillColor=none;align=center;verticalAlign=middle;whiteSpace=wrap;rounded=0;" parent="1" vertex="1">
                    <mxGeometry x="235" y="315" width="100" height="30" as="geometry"/>
                </mxCell>
                <mxCell id="OxFK7hYPwCvfKSO99pZe-21" value="" style="rounded=1;whiteSpace=wrap;html=1;" parent="1" vertex="1">
                    <mxGeometry x="415" y="300" width="120" height="60" as="geometry"/>
                </mxCell>
                <mxCell id="OxFK7hYPwCvfKSO99pZe-22" value="&lt;b style=&quot;&quot;&gt;&lt;font color=&quot;#ef0fff&quot;&gt;class &lt;/font&gt;&lt;/b&gt;&lt;font color=&quot;#ff9933&quot;&gt;Groups&lt;/font&gt;" style="text;html=1;strokeColor=none;fillColor=none;align=center;verticalAlign=middle;whiteSpace=wrap;rounded=0;" parent="1" vertex="1">
                    <mxGeometry x="425" y="315" width="100" height="30" as="geometry"/>
                </mxCell>
                <mxCell id="OxFK7hYPwCvfKSO99pZe-23" value="" style="curved=1;endArrow=classic;html=1;rounded=0;exitX=0.5;exitY=0;exitDx=0;exitDy=0;" parent="1" source="OxFK7hYPwCvfKSO99pZe-17" edge="1">
                    <mxGeometry width="50" height="50" relative="1" as="geometry">
                        <mxPoint x="370" y="370" as="sourcePoint"/>
                        <mxPoint x="270" y="250" as="targetPoint"/>
                        <Array as="points">
                            <mxPoint x="130" y="280"/>
                            <mxPoint x="170" y="270"/>
                            <mxPoint x="270" y="280"/>
                        </Array>
                    </mxGeometry>
                </mxCell>
                <mxCell id="OxFK7hYPwCvfKSO99pZe-27" value="" style="curved=1;endArrow=classic;html=1;rounded=0;entryX=0.5;entryY=1;entryDx=0;entryDy=0;exitX=0.5;exitY=0;exitDx=0;exitDy=0;" parent="1" source="OxFK7hYPwCvfKSO99pZe-19" target="OxFK7hYPwCvfKSO99pZe-16" edge="1">
                    <mxGeometry width="50" height="50" relative="1" as="geometry">
                        <mxPoint x="260" y="315" as="sourcePoint"/>
                        <mxPoint x="310" y="265" as="targetPoint"/>
                        <Array as="points">
                            <mxPoint x="280" y="290"/>
                            <mxPoint x="280" y="265"/>
                        </Array>
                    </mxGeometry>
                </mxCell>
                <mxCell id="OxFK7hYPwCvfKSO99pZe-29" value="" style="curved=1;endArrow=classic;html=1;rounded=0;entryX=0.621;entryY=1.026;entryDx=0;entryDy=0;entryPerimeter=0;exitX=0.5;exitY=0;exitDx=0;exitDy=0;" parent="1" source="OxFK7hYPwCvfKSO99pZe-21" target="OxFK7hYPwCvfKSO99pZe-16" edge="1">
                    <mxGeometry width="50" height="50" relative="1" as="geometry">
                        <mxPoint x="360" y="310" as="sourcePoint"/>
                        <mxPoint x="410" y="260" as="targetPoint"/>
                        <Array as="points">
                            <mxPoint x="380" y="300"/>
                            <mxPoint x="320" y="270"/>
                        </Array>
                    </mxGeometry>
                </mxCell>
                <mxCell id="OxFK7hYPwCvfKSO99pZe-31" value="&lt;font style=&quot;font-weight: bold;&quot; color=&quot;#ef0fff&quot;&gt;class &lt;/font&gt;&lt;font style=&quot;&quot; color=&quot;#ff9933&quot;&gt;Nodes&lt;/font&gt;" style="text;html=1;strokeColor=none;fillColor=none;align=center;verticalAlign=middle;whiteSpace=wrap;rounded=0;" parent="1" vertex="1">
                    <mxGeometry x="55" y="315" width="100" height="30" as="geometry"/>
                </mxCell>
                <mxCell id="OxFK7hYPwCvfKSO99pZe-34" value="&lt;font style=&quot;font-size: 9px;&quot;&gt;&lt;b style=&quot;color: rgb(189, 193, 198); text-align: left; background-color: rgb(32, 33, 36); font-family: &amp;quot;Google Sans&amp;quot;, arial, sans-serif;&quot;&gt;â€¢ Incoming transitions&lt;br&gt;&lt;/b&gt;&lt;b style=&quot;color: rgb(189, 193, 198); text-align: left; background-color: rgb(32, 33, 36); font-family: &amp;quot;Google Sans&amp;quot;, arial, sans-serif;&quot;&gt;â€¢ Outgoing transitions&lt;br&gt;&lt;/b&gt;&lt;b style=&quot;color: rgb(189, 193, 198); text-align: left; background-color: rgb(32, 33, 36); font-family: &amp;quot;Google Sans&amp;quot;, arial, sans-serif;&quot;&gt;â€¢ Tokens&lt;br&gt;&lt;/b&gt;&lt;b style=&quot;color: rgb(189, 193, 198); text-align: left; background-color: rgb(32, 33, 36); font-family: &amp;quot;Google Sans&amp;quot;, arial, sans-serif;&quot;&gt;â€¢ Knockout status&lt;/b&gt;&lt;/font&gt;&lt;b style=&quot;color: rgb(189, 193, 198); font-family: &amp;quot;Google Sans&amp;quot;, arial, sans-serif; font-size: 14px; text-align: left; background-color: rgb(32, 33, 36);&quot;&gt;&lt;br&gt;&lt;/b&gt;" style="text;html=1;strokeColor=none;fillColor=none;align=center;verticalAlign=middle;whiteSpace=wrap;rounded=0;" parent="1" vertex="1">
                    <mxGeometry x="34" y="365" width="140" height="55" as="geometry"/>
                </mxCell>
                <mxCell id="OxFK7hYPwCvfKSO99pZe-36" value="&lt;font style=&quot;font-size: 9px;&quot;&gt;&lt;b style=&quot;color: rgb(189, 193, 198); text-align: left; background-color: rgb(32, 33, 36); font-family: &amp;quot;Google Sans&amp;quot;, arial, sans-serif;&quot;&gt;â€¢ From node id&amp;nbsp;&lt;br&gt;&lt;/b&gt;&lt;b style=&quot;color: rgb(189, 193, 198); text-align: left; background-color: rgb(32, 33, 36); font-family: &amp;quot;Google Sans&amp;quot;, arial, sans-serif;&quot;&gt;â€¢ To node id&lt;br&gt;&lt;/b&gt;&lt;b style=&quot;color: rgb(189, 193, 198); text-align: left; background-color: rgb(32, 33, 36); font-family: &amp;quot;Google Sans&amp;quot;, arial, sans-serif;&quot;&gt;â€¢ Name&lt;br&gt;&lt;/b&gt;&lt;/font&gt;&lt;b style=&quot;color: rgb(189, 193, 198); font-family: &amp;quot;Google Sans&amp;quot;, arial, sans-serif; font-size: 14px; text-align: left; background-color: rgb(32, 33, 36);&quot;&gt;&lt;br&gt;&lt;/b&gt;" style="text;html=1;strokeColor=none;fillColor=none;align=center;verticalAlign=middle;whiteSpace=wrap;rounded=0;" parent="1" vertex="1">
                    <mxGeometry x="214" y="366" width="140" height="55" as="geometry"/>
                </mxCell>
                <mxCell id="OxFK7hYPwCvfKSO99pZe-45" style="edgeStyle=orthogonalEdgeStyle;rounded=0;orthogonalLoop=1;jettySize=auto;html=1;exitX=0.5;exitY=0;exitDx=0;exitDy=0;" parent="1" source="OxFK7hYPwCvfKSO99pZe-43" edge="1">
                    <mxGeometry relative="1" as="geometry">
                        <mxPoint x="475.2222222222222" y="160" as="targetPoint"/>
                    </mxGeometry>
                </mxCell>
                <mxCell id="OxFK7hYPwCvfKSO99pZe-43" value="" style="rounded=1;whiteSpace=wrap;html=1;" parent="1" vertex="1">
                    <mxGeometry x="415" y="190" width="120" height="60" as="geometry"/>
                </mxCell>
                <mxCell id="OxFK7hYPwCvfKSO99pZe-44" value="&lt;font style=&quot;&quot; color=&quot;#ff9933&quot;&gt;UI&amp;nbsp;&lt;br&gt;&lt;/font&gt;" style="text;html=1;strokeColor=none;fillColor=none;align=center;verticalAlign=middle;whiteSpace=wrap;rounded=0;" parent="1" vertex="1">
                    <mxGeometry x="425" y="205" width="100" height="30" as="geometry"/>
                </mxCell>
                <mxCell id="OxFK7hYPwCvfKSO99pZe-46" value="KGML-PN" style="rounded=0;whiteSpace=wrap;html=1;" parent="1" vertex="1">
                    <mxGeometry x="415" y="100" width="120" height="60" as="geometry"/>
                </mxCell>
                <mxCell id="OxFK7hYPwCvfKSO99pZe-48" value="KGML" style="text;html=1;strokeColor=none;fillColor=none;align=center;verticalAlign=middle;whiteSpace=wrap;rounded=0;" parent="1" vertex="1">
                    <mxGeometry x="260" y="70" width="60" height="30" as="geometry"/>
                </mxCell>
            </root>
        </mxGraphModel>
    </diagram>
</mxfile>